<svg xmlns="http://www.w3.org/2000/svg" xmlns:xlink="http://www.w3.org/1999/xlink" width="500" zoomAndPan="magnify" viewBox="0 0 375 374.999991" height="500" preserveAspectRatio="xMidYMid meet" version="1.0"><defs><clipPath id="4a2a6fea51"><path d="M 37.5 186 L 53 186 L 53 202 L 37.5 202 Z M 37.5 186 " clip-rule="nonzero"/></clipPath><clipPath id="2c76c8d85e"><path d="M 95.835938 101.269531 L 295.367188 101.269531 L 295.367188 273.769531 L 95.835938 273.769531 Z M 95.835938 101.269531 " clip-rule="nonzero"/></clipPath><clipPath id="1878f6da6b"><path d="M 143.605469 121.039062 L 257.960938 121.039062 L 257.960938 213.117188 L 143.605469 213.117188 Z M 143.605469 121.039062 " clip-rule="nonzero"/></clipPath><clipPath id="6cfc13c78f"><path d="M 168.167969 151.351562 L 204 151.351562 L 204 187.351562 L 168.167969 187.351562 Z M 168.167969 151.351562 " clip-rule="nonzero"/></clipPath><clipPath id="101d64efdc"><path d="M 221.238281 151.351562 L 255.738281 151.351562 L 255.738281 187.351562 L 221.238281 187.351562 Z M 221.238281 151.351562 " clip-rule="nonzero"/></clipPath><clipPath id="9d6b813309"><path d="M 187.546875 151.171875 L 221.296875 151.171875 L 221.296875 187.171875 L 187.546875 187.171875 Z M 187.546875 151.171875 " clip-rule="nonzero"/></clipPath><clipPath id="043f43ae7c"><path d="M 159.878906 182.390625 L 165.128906 182.390625 L 165.128906 187.640625 L 159.878906 187.640625 Z M 159.878906 182.390625 " clip-rule="nonzero"/></clipPath><clipPath id="3d4d5e3517"><path d="M 182.769531 221 L 188 221 L 188 230 L 182.769531 230 Z M 182.769531 221 " clip-rule="nonzero"/></clipPath><clipPath id="081b910978"><path d="M 188 219.351562 L 194 219.351562 L 194 231.351562 L 188 231.351562 Z M 188 219.351562 " clip-rule="nonzero"/></clipPath></defs><rect x="-37.5" width="450" fill="#ffffff" y="-37.499999" height="449.999989" fill-opacity="1"/><rect x="-37.5" width="450" fill="#ffffff" y="-37.499999" height="449.999989" fill-opacity="1"/><rect x="-37.5" width="450" fill="#000000" y="-37.499999" height="449.999989" fill-opacity="1"/><g clip-path="url(#4a2a6fea51)"><path fill="#ffffff" d="M 47.976562 197.324219 L 41.765625 197.324219 L 41.765625 191.117188 L 47.976562 191.117188 Z M 47.976562 186.980469 L 41.765625 186.980469 C 39.484375 186.980469 37.628906 188.835938 37.628906 191.117188 L 37.628906 197.324219 C 37.628906 199.605469 39.484375 201.460938 41.765625 201.460938 L 47.976562 201.460938 C 50.257812 201.460938 52.113281 199.605469 52.113281 197.324219 L 52.113281 191.117188 C 52.113281 188.835938 50.257812 186.980469 47.976562 186.980469 " fill-opacity="1" fill-rule="nonzero"/></g><path fill="#ffffff" d="M 168.84375 145.832031 C 170.132812 143.839844 172.117188 142.464844 174.433594 141.96875 C 175.058594 141.835938 175.6875 141.769531 176.3125 141.769531 C 178 141.769531 179.660156 142.253906 181.117188 143.195312 C 183.113281 144.484375 184.484375 146.46875 184.984375 148.785156 C 185.480469 151.097656 185.046875 153.472656 183.757812 155.464844 C 182.464844 157.460938 180.480469 158.832031 178.167969 159.332031 C 175.851562 159.828125 173.480469 159.394531 171.484375 158.105469 C 169.488281 156.816406 168.113281 154.832031 167.617188 152.515625 C 167.117188 150.203125 167.554688 147.828125 168.84375 145.832031 Z M 169.238281 161.578125 C 171.371094 162.960938 173.804688 163.671875 176.28125 163.671875 C 177.199219 163.671875 178.121094 163.574219 179.039062 163.375 C 182.433594 162.648438 185.34375 160.636719 187.234375 157.710938 C 189.121094 154.789062 189.761719 151.308594 189.03125 147.914062 C 188.300781 144.519531 186.289062 141.609375 183.363281 139.71875 C 180.441406 137.832031 176.957031 137.191406 173.5625 137.921875 C 170.167969 138.652344 167.257812 140.664062 165.367188 143.589844 C 163.480469 146.511719 162.839844 149.992188 163.570312 153.386719 C 164.300781 156.78125 166.3125 159.691406 169.238281 161.578125 " fill-opacity="1" fill-rule="nonzero"/><path fill="#ffffff" d="M 157.082031 142.570312 L 154.171875 140.691406 C 153.816406 140.460938 153.570312 140.105469 153.480469 139.691406 C 153.390625 139.277344 153.46875 138.851562 153.699219 138.496094 L 155.929688 135.042969 C 156.402344 134.308594 157.386719 134.097656 158.125 134.574219 L 160.90625 136.371094 C 161.691406 136.878906 162.726562 136.792969 163.421875 136.164062 C 164.601562 135.089844 165.914062 134.167969 167.324219 133.425781 C 168.144531 132.992188 168.578125 132.066406 168.382812 131.160156 L 167.695312 127.964844 C 167.511719 127.109375 168.058594 126.261719 168.914062 126.078125 L 172.933594 125.214844 C 173.785156 125.03125 174.632812 125.578125 174.816406 126.433594 L 175.503906 129.628906 C 175.699219 130.535156 176.476562 131.203125 177.402344 131.257812 C 178.992188 131.355469 180.566406 131.65625 182.085938 132.152344 C 182.980469 132.441406 183.957031 132.09375 184.464844 131.304688 L 186.261719 128.527344 C 186.492188 128.167969 186.847656 127.925781 187.261719 127.835938 C 187.675781 127.746094 188.101562 127.824219 188.457031 128.054688 L 191.910156 130.285156 C 192.265625 130.515625 192.507812 130.867188 192.597656 131.28125 C 192.6875 131.695312 192.609375 132.121094 192.378906 132.476562 L 190.5 135.386719 C 190.003906 136.15625 190.070312 137.164062 190.671875 137.859375 C 191.679688 139.03125 192.539062 140.324219 193.234375 141.699219 C 193.65625 142.542969 194.597656 142.992188 195.515625 142.792969 L 198.992188 142.046875 C 199.40625 141.957031 199.832031 142.035156 200.1875 142.265625 C 200.542969 142.496094 200.789062 142.851562 200.878906 143.265625 L 201.742188 147.28125 C 201.925781 148.136719 201.378906 148.984375 200.523438 149.167969 L 196.832031 149.960938 C 195.941406 150.152344 195.28125 150.90625 195.207031 151.816406 C 195.085938 153.28125 194.796875 154.738281 194.339844 156.136719 C 194.050781 157.027344 194.398438 158.003906 195.1875 158.511719 L 198.429688 160.609375 C 198.785156 160.839844 199.03125 161.195312 199.121094 161.609375 C 199.210938 162.023438 199.132812 162.445312 198.902344 162.804688 L 196.671875 166.253906 C 196.441406 166.609375 196.085938 166.855469 195.671875 166.945312 C 195.257812 167.035156 194.832031 166.957031 194.476562 166.726562 L 191.105469 164.546875 C 190.332031 164.050781 189.328125 164.117188 188.632812 164.714844 C 187.554688 165.644531 186.371094 166.449219 185.113281 167.113281 C 184.289062 167.546875 183.859375 168.472656 184.054688 169.378906 L 184.90625 173.335938 C 185.089844 174.191406 184.542969 175.035156 183.6875 175.222656 L 179.667969 176.085938 C 179.253906 176.171875 178.828125 176.097656 178.472656 175.867188 C 178.117188 175.636719 177.871094 175.28125 177.78125 174.867188 L 176.929688 170.910156 C 176.738281 170.003906 175.960938 169.335938 175.035156 169.277344 C 173.617188 169.191406 172.207031 168.941406 170.84375 168.539062 C 170.648438 168.484375 170.453125 168.457031 170.257812 168.457031 C 169.566406 168.457031 168.90625 168.800781 168.519531 169.402344 L 166.339844 172.773438 C 166.109375 173.128906 165.753906 173.375 165.339844 173.464844 C 164.925781 173.554688 164.5 173.476562 164.144531 173.246094 L 160.691406 171.015625 C 159.957031 170.542969 159.746094 169.554688 160.21875 168.820312 L 162.316406 165.578125 C 162.824219 164.792969 162.738281 163.757812 162.109375 163.0625 C 161.117188 161.976562 160.257812 160.769531 159.542969 159.480469 C 159.101562 158.683594 158.191406 158.265625 157.296875 158.460938 L 153.609375 159.25 C 153.195312 159.339844 152.769531 159.261719 152.414062 159.035156 C 152.058594 158.804688 151.8125 158.449219 151.722656 158.035156 L 150.859375 154.015625 C 150.769531 153.601562 150.847656 153.179688 151.078125 152.820312 C 151.308594 152.464844 151.664062 152.222656 152.078125 152.132812 L 155.550781 151.386719 C 156.472656 151.1875 157.144531 150.390625 157.183594 149.449219 C 157.25 147.90625 157.503906 146.375 157.941406 144.894531 C 158.203125 144.015625 157.851562 143.066406 157.082031 142.570312 Z M 151.207031 148.085938 C 149.710938 148.40625 148.429688 149.292969 147.601562 150.578125 C 146.769531 151.859375 146.492188 153.390625 146.8125 154.886719 L 147.675781 158.902344 C 148 160.398438 148.882812 161.679688 150.167969 162.507812 C 151.453125 163.339844 152.984375 163.621094 154.476562 163.296875 L 156.71875 162.816406 C 157.117188 163.4375 157.546875 164.039062 158.007812 164.621094 L 156.746094 166.574219 C 155.914062 167.859375 155.632812 169.390625 155.957031 170.886719 C 156.277344 172.382812 157.160156 173.660156 158.445312 174.492188 L 161.898438 176.722656 C 163.183594 177.550781 164.714844 177.832031 166.210938 177.511719 C 167.707031 177.1875 168.984375 176.304688 169.816406 175.019531 L 171.183594 172.902344 C 171.851562 173.050781 172.527344 173.167969 173.203125 173.257812 L 173.738281 175.738281 C 174.058594 177.230469 174.941406 178.511719 176.226562 179.34375 C 177.164062 179.945312 178.234375 180.261719 179.324219 180.261719 C 179.726562 180.261719 180.132812 180.21875 180.539062 180.128906 L 184.554688 179.265625 C 187.644531 178.601562 189.613281 175.550781 188.949219 172.464844 L 188.417969 169.988281 C 189 169.628906 189.566406 169.242188 190.113281 168.832031 L 192.230469 170.203125 C 193.515625 171.03125 195.046875 171.3125 196.542969 170.988281 C 198.039062 170.667969 199.316406 169.785156 200.148438 168.5 L 202.378906 165.046875 C 203.207031 163.765625 203.488281 162.234375 203.167969 160.738281 C 202.84375 159.242188 201.960938 157.964844 200.675781 157.132812 L 198.71875 155.871094 C 198.898438 155.152344 199.042969 154.425781 199.152344 153.695312 L 201.394531 153.214844 C 204.480469 152.550781 206.453125 149.5 205.789062 146.414062 L 204.925781 142.394531 C 204.601562 140.898438 203.71875 139.621094 202.433594 138.789062 C 201.148438 137.960938 199.617188 137.679688 198.121094 138 L 196.15625 138.425781 C 195.734375 137.71875 195.277344 137.035156 194.785156 136.378906 L 195.855469 134.722656 C 196.6875 133.4375 196.96875 131.90625 196.644531 130.414062 C 196.324219 128.917969 195.4375 127.636719 194.15625 126.808594 L 190.703125 124.578125 C 188.050781 122.863281 184.5 123.628906 182.785156 126.28125 L 181.820312 127.769531 C 180.96875 127.558594 180.105469 127.394531 179.234375 127.28125 L 178.863281 125.5625 C 178.542969 124.066406 177.660156 122.789062 176.375 121.957031 C 175.089844 121.128906 173.558594 120.847656 172.0625 121.167969 L 168.042969 122.03125 C 166.546875 122.355469 165.269531 123.238281 164.4375 124.523438 C 163.609375 125.808594 163.328125 127.339844 163.648438 128.832031 L 164.019531 130.550781 C 163.273438 131.011719 162.550781 131.515625 161.863281 132.0625 L 160.371094 131.097656 C 159.085938 130.269531 157.554688 129.988281 156.058594 130.308594 C 154.5625 130.628906 153.28125 131.515625 152.453125 132.800781 L 150.222656 136.25 C 149.394531 137.535156 149.113281 139.066406 149.433594 140.5625 C 149.753906 142.054688 150.640625 143.335938 151.925781 144.164062 L 153.582031 145.234375 C 153.402344 146.039062 153.265625 146.847656 153.175781 147.664062 L 151.207031 148.085938 " fill-opacity="1" fill-rule="nonzero"/><path fill="#ffffff" d="M 210.398438 170.246094 C 210.945312 169.148438 211.632812 168.125 212.433594 167.199219 C 213.042969 166.5 213.109375 165.480469 212.601562 164.707031 L 211.179688 162.546875 C 210.929688 162.167969 211.035156 161.65625 211.414062 161.410156 L 214.128906 159.621094 C 214.375 159.460938 214.621094 159.480469 214.746094 159.503906 C 214.871094 159.53125 215.105469 159.609375 215.265625 159.859375 L 216.6875 162.015625 C 217.199219 162.792969 218.160156 163.132812 219.046875 162.851562 C 220.210938 162.480469 221.421875 162.257812 222.648438 162.1875 C 223.585938 162.136719 224.367188 161.460938 224.558594 160.539062 L 225.085938 157.976562 C 225.148438 157.6875 225.335938 157.527344 225.441406 157.457031 C 225.546875 157.386719 225.769531 157.28125 226.058594 157.339844 L 229.242188 157.996094 C 229.683594 158.085938 229.972656 158.523438 229.878906 158.964844 L 229.328125 161.648438 C 229.140625 162.546875 229.570312 163.460938 230.378906 163.890625 C 231.425781 164.449219 232.402344 165.132812 233.28125 165.929688 C 233.980469 166.5625 235.019531 166.640625 235.808594 166.121094 L 238.15625 164.578125 C 238.53125 164.328125 239.042969 164.433594 239.292969 164.8125 L 241.078125 167.527344 C 241.242188 167.773438 241.222656 168.019531 241.199219 168.144531 C 241.171875 168.269531 241.089844 168.503906 240.84375 168.664062 L 238.351562 170.304688 C 237.589844 170.808594 237.246094 171.75 237.507812 172.625 C 237.828125 173.707031 238.023438 174.828125 238.085938 175.957031 C 238.140625 176.894531 238.816406 177.675781 239.734375 177.867188 L 242.726562 178.484375 C 243.015625 178.542969 243.175781 178.730469 243.246094 178.835938 C 243.316406 178.941406 243.421875 179.164062 243.363281 179.453125 L 242.707031 182.636719 C 242.617188 183.078125 242.179688 183.367188 241.738281 183.273438 L 238.628906 182.632812 C 237.730469 182.449219 236.816406 182.875 236.382812 183.6875 C 235.871094 184.648438 235.246094 185.554688 234.53125 186.378906 C 233.921875 187.078125 233.851562 188.097656 234.363281 188.875 L 236.125 191.546875 C 236.285156 191.796875 236.265625 192.039062 236.242188 192.164062 C 236.214844 192.289062 236.136719 192.523438 235.886719 192.683594 L 233.171875 194.46875 C 232.792969 194.71875 232.285156 194.613281 232.035156 194.238281 L 230.273438 191.5625 C 229.765625 190.789062 228.800781 190.445312 227.917969 190.726562 C 226.878906 191.058594 225.796875 191.273438 224.710938 191.363281 C 223.796875 191.441406 223.042969 192.109375 222.855469 193.007812 L 222.214844 196.117188 C 222.15625 196.40625 221.96875 196.566406 221.859375 196.636719 C 221.753906 196.707031 221.535156 196.816406 221.242188 196.753906 L 218.058594 196.097656 C 217.617188 196.007812 217.332031 195.574219 217.421875 195.128906 L 218.039062 192.140625 C 218.226562 191.21875 217.777344 190.289062 216.9375 189.871094 C 215.925781 189.363281 214.972656 188.742188 214.105469 188.015625 C 213.722656 187.699219 213.25 187.535156 212.777344 187.535156 C 212.382812 187.535156 211.988281 187.648438 211.640625 187.875 L 209.148438 189.515625 C 208.898438 189.679688 208.65625 189.660156 208.53125 189.632812 C 208.40625 189.609375 208.171875 189.527344 208.011719 189.28125 L 206.222656 186.566406 C 205.972656 186.1875 206.078125 185.679688 206.457031 185.429688 L 208.804688 183.882812 C 209.59375 183.367188 209.929688 182.382812 209.628906 181.488281 C 209.246094 180.367188 209.003906 179.199219 208.902344 178.019531 C 208.828125 177.105469 208.160156 176.347656 207.257812 176.164062 L 204.578125 175.609375 C 204.132812 175.519531 203.847656 175.082031 203.9375 174.640625 L 204.59375 171.457031 C 204.6875 171.015625 205.121094 170.726562 205.566406 170.820312 L 208.128906 171.347656 C 209.046875 171.539062 209.980469 171.085938 210.398438 170.246094 Z M 206.402344 166.765625 C 203.722656 166.214844 201.09375 167.941406 200.539062 170.621094 L 199.882812 173.804688 C 199.332031 176.480469 201.0625 179.109375 203.742188 179.664062 L 204.976562 179.917969 C 205.050781 180.371094 205.144531 180.820312 205.253906 181.265625 L 204.183594 181.972656 C 201.898438 183.476562 201.261719 186.558594 202.765625 188.839844 L 204.550781 191.554688 C 205.28125 192.664062 206.394531 193.417969 207.695312 193.6875 C 208.992188 193.953125 210.316406 193.703125 211.421875 192.972656 L 212.6875 192.140625 C 213.011719 192.367188 213.339844 192.585938 213.679688 192.792969 L 213.367188 194.292969 C 213.101562 195.589844 213.355469 196.914062 214.082031 198.019531 C 214.8125 199.128906 215.925781 199.882812 217.222656 200.152344 L 220.40625 200.808594 C 220.742188 200.878906 221.078125 200.910156 221.410156 200.910156 C 223.714844 200.910156 225.785156 199.296875 226.269531 196.953125 L 226.609375 195.292969 C 226.957031 195.234375 227.300781 195.167969 227.640625 195.089844 L 228.578125 196.511719 C 230.082031 198.796875 233.164062 199.433594 235.449219 197.929688 L 238.164062 196.140625 C 239.269531 195.414062 240.027344 194.296875 240.292969 193 C 240.5625 191.703125 240.308594 190.378906 239.582031 189.273438 L 238.644531 187.851562 C 238.851562 187.566406 239.050781 187.277344 239.238281 186.984375 L 240.902344 187.328125 C 243.578125 187.882812 246.210938 186.148438 246.761719 183.472656 L 247.417969 180.289062 C 247.96875 177.609375 246.242188 174.984375 243.5625 174.429688 L 242.058594 174.121094 C 242.003906 173.730469 241.933594 173.339844 241.855469 172.953125 L 243.117188 172.121094 C 245.40625 170.617188 246.039062 167.535156 244.535156 165.253906 L 242.75 162.539062 C 241.246094 160.253906 238.164062 159.617188 235.878906 161.121094 L 234.808594 161.824219 C 234.441406 161.546875 234.066406 161.285156 233.679688 161.035156 L 233.933594 159.800781 C 234.488281 157.125 232.757812 154.496094 230.078125 153.941406 L 226.894531 153.285156 C 225.597656 153.019531 224.273438 153.273438 223.167969 154 C 222.058594 154.726562 221.300781 155.84375 221.035156 157.140625 L 220.8125 158.214844 C 220.3125 158.289062 219.816406 158.378906 219.324219 158.492188 L 218.726562 157.582031 C 217.996094 156.476562 216.882812 155.71875 215.582031 155.453125 C 214.285156 155.183594 212.960938 155.4375 211.855469 156.167969 L 209.140625 157.953125 C 206.855469 159.453125 206.21875 162.535156 207.722656 164.820312 L 208.320312 165.730469 C 208.023438 166.136719 207.742188 166.558594 207.476562 166.988281 L 206.402344 166.765625 " fill-opacity="1" fill-rule="nonzero"/><path fill="#ffffff" d="M 219.582031 170.863281 C 220.832031 170.039062 222.242188 169.644531 223.640625 169.644531 C 226.050781 169.644531 228.417969 170.816406 229.839844 172.976562 C 230.921875 174.625 231.300781 176.601562 230.898438 178.542969 C 230.5 180.480469 229.371094 182.148438 227.722656 183.230469 C 226.074219 184.316406 224.097656 184.695312 222.15625 184.292969 C 220.214844 183.894531 218.550781 182.765625 217.464844 181.117188 C 215.21875 177.707031 216.167969 173.105469 219.582031 170.863281 Z M 223.667969 188.585938 C 225.84375 188.585938 228.046875 187.972656 229.996094 186.6875 C 232.570312 184.996094 234.332031 182.398438 234.953125 179.378906 C 235.578125 176.355469 234.988281 173.273438 233.296875 170.703125 C 231.601562 168.128906 229.003906 166.371094 225.984375 165.746094 C 222.960938 165.125 219.878906 165.710938 217.304688 167.40625 C 211.988281 170.902344 210.507812 178.074219 214.007812 183.390625 C 216.222656 186.757812 219.910156 188.585938 223.667969 188.585938 " fill-opacity="1" fill-rule="nonzero"/><g clip-path="url(#2c76c8d85e)"><path fill="#ffffff" d="M 291.230469 221.851562 C 291.230469 228.179688 286.082031 233.324219 279.753906 233.324219 L 154.761719 233.324219 L 154.761719 216.980469 L 279.753906 216.980469 C 282.65625 216.980469 285.019531 214.617188 285.019531 211.714844 L 285.019531 116.882812 C 285.019531 113.980469 282.65625 111.617188 279.753906 111.617188 L 154.761719 111.617188 L 154.761719 105.410156 L 279.753906 105.410156 C 286.082031 105.410156 291.230469 110.558594 291.230469 116.882812 Z M 172.445312 257.5625 L 175.941406 238.375 C 176.023438 237.925781 176.152344 237.628906 176.246094 237.464844 L 210.84375 237.464844 C 210.941406 237.628906 211.066406 237.925781 211.148438 238.378906 L 214.648438 257.5625 C 214.871094 258.785156 214.578125 259.796875 214.347656 260.203125 L 172.742188 260.203125 C 172.515625 259.796875 172.222656 258.785156 172.445312 257.5625 Z M 227.78125 264.339844 C 229.242188 264.339844 230.433594 265.53125 230.433594 266.992188 C 230.433594 268.453125 229.242188 269.644531 227.78125 269.644531 L 159.3125 269.644531 C 157.847656 269.644531 156.660156 268.453125 156.660156 266.992188 C 156.660156 265.53125 157.847656 264.339844 159.3125 264.339844 Z M 147.378906 232.789062 L 141.171875 232.789062 L 141.171875 226.582031 L 147.378906 226.582031 Z M 133.789062 232.789062 L 127.582031 232.789062 L 127.582031 226.582031 L 133.789062 226.582031 Z M 120.199219 232.789062 L 113.988281 232.789062 L 113.988281 226.582031 L 120.199219 226.582031 Z M 147.378906 111.617188 L 141.171875 111.617188 L 141.171875 105.410156 L 147.378906 105.410156 Z M 133.789062 111.617188 L 127.582031 111.617188 L 127.582031 105.410156 L 133.789062 105.410156 Z M 120.199219 111.617188 L 113.988281 111.617188 L 113.988281 105.410156 L 120.199219 105.410156 Z M 106.238281 111.617188 L 100.03125 111.617188 L 100.03125 105.410156 L 106.238281 105.410156 Z M 279.753906 101.273438 L 154.761719 101.273438 C 153.148438 101.273438 151.753906 102.199219 151.070312 103.546875 C 150.386719 102.199219 148.988281 101.273438 147.378906 101.273438 L 141.171875 101.273438 C 139.558594 101.273438 138.164062 102.199219 137.480469 103.546875 C 136.796875 102.199219 135.402344 101.273438 133.789062 101.273438 L 127.582031 101.273438 C 125.96875 101.273438 124.574219 102.199219 123.890625 103.546875 C 123.207031 102.199219 121.8125 101.273438 120.199219 101.273438 L 113.988281 101.273438 C 112.214844 101.273438 110.699219 102.398438 110.113281 103.972656 C 109.527344 102.398438 108.015625 101.273438 106.238281 101.273438 L 100.03125 101.273438 C 97.746094 101.273438 95.890625 103.128906 95.890625 105.410156 L 95.890625 111.617188 C 95.890625 113.898438 97.746094 115.753906 100.03125 115.753906 L 106.238281 115.753906 C 108.015625 115.753906 109.527344 114.628906 110.113281 113.054688 C 110.699219 114.628906 112.214844 115.753906 113.988281 115.753906 L 120.199219 115.753906 C 121.8125 115.753906 123.207031 114.828125 123.890625 113.480469 C 124.574219 114.828125 125.96875 115.753906 127.582031 115.753906 L 133.789062 115.753906 C 135.402344 115.753906 136.796875 114.828125 137.480469 113.480469 C 138.164062 114.828125 139.558594 115.753906 141.171875 115.753906 L 147.378906 115.753906 C 148.988281 115.753906 150.386719 114.828125 151.070312 113.480469 C 151.753906 114.828125 153.148438 115.753906 154.761719 115.753906 L 279.753906 115.753906 C 280.375 115.753906 280.882812 116.261719 280.882812 116.882812 L 280.882812 211.714844 C 280.882812 212.335938 280.375 212.839844 279.753906 212.839844 L 154.761719 212.839844 C 152.476562 212.839844 150.621094 214.695312 150.621094 216.980469 L 150.621094 224.019531 C 149.863281 223.0625 148.691406 222.445312 147.378906 222.445312 L 141.171875 222.445312 C 139.558594 222.445312 138.164062 223.371094 137.480469 224.71875 C 136.796875 223.371094 135.402344 222.445312 133.789062 222.445312 L 127.582031 222.445312 C 125.96875 222.445312 124.574219 223.371094 123.890625 224.71875 C 123.207031 223.371094 121.8125 222.445312 120.199219 222.445312 L 113.988281 222.445312 C 111.707031 222.445312 109.851562 224.300781 109.851562 226.582031 L 109.851562 232.789062 C 109.851562 235.074219 111.707031 236.929688 113.988281 236.929688 L 120.199219 236.929688 C 121.8125 236.929688 123.207031 236 123.890625 234.652344 C 124.574219 236 125.96875 236.929688 127.582031 236.929688 L 133.789062 236.929688 C 135.402344 236.929688 136.796875 236 137.480469 234.652344 C 138.164062 236 139.558594 236.929688 141.171875 236.929688 L 147.378906 236.929688 C 148.890625 236.929688 150.210938 236.113281 150.933594 234.898438 C 151.554688 236.402344 153.035156 237.464844 154.761719 237.464844 L 171.90625 237.464844 C 171.894531 237.519531 171.882812 237.578125 171.871094 237.636719 L 168.371094 256.820312 C 168.164062 257.964844 168.183594 259.136719 168.402344 260.203125 L 159.3125 260.203125 C 155.566406 260.203125 152.519531 263.246094 152.519531 266.992188 C 152.519531 270.734375 155.566406 273.78125 159.3125 273.78125 L 227.78125 273.78125 C 231.523438 273.78125 234.570312 270.734375 234.570312 266.992188 C 234.570312 263.246094 231.523438 260.203125 227.78125 260.203125 L 218.691406 260.203125 C 218.910156 259.136719 218.929688 257.964844 218.71875 256.820312 L 215.222656 237.636719 C 215.210938 237.578125 215.195312 237.519531 215.183594 237.464844 L 279.753906 237.464844 C 288.363281 237.464844 295.367188 230.460938 295.367188 221.851562 L 295.367188 116.882812 C 295.367188 108.273438 288.363281 101.273438 279.753906 101.273438 " fill-opacity="1" fill-rule="nonzero"/></g><path fill="#ffffff" d="M 120.199219 126.765625 L 113.988281 126.765625 L 113.988281 120.554688 L 120.199219 120.554688 Z M 106.238281 126.765625 L 100.03125 126.765625 L 100.03125 120.554688 L 106.238281 120.554688 Z M 92.277344 126.765625 L 86.070312 126.765625 L 86.070312 120.554688 L 92.277344 120.554688 Z M 124.339844 120.554688 C 124.339844 118.273438 122.480469 116.417969 120.199219 116.417969 L 113.988281 116.417969 C 112.214844 116.417969 110.699219 117.542969 110.113281 119.117188 C 109.527344 117.542969 108.015625 116.417969 106.238281 116.417969 L 100.03125 116.417969 C 98.253906 116.417969 96.738281 117.542969 96.152344 119.117188 C 95.566406 117.542969 94.054688 116.417969 92.277344 116.417969 L 86.070312 116.417969 C 83.785156 116.417969 81.929688 118.273438 81.929688 120.554688 L 81.929688 126.765625 C 81.929688 129.046875 83.785156 130.902344 86.070312 130.902344 L 92.277344 130.902344 C 94.054688 130.902344 95.566406 129.777344 96.152344 128.203125 C 96.738281 129.777344 98.253906 130.902344 100.03125 130.902344 L 106.238281 130.902344 C 108.015625 130.902344 109.527344 129.777344 110.113281 128.203125 C 110.699219 129.777344 112.214844 130.902344 113.988281 130.902344 L 120.199219 130.902344 C 122.480469 130.902344 124.339844 129.046875 124.339844 126.765625 L 124.339844 120.554688 " fill-opacity="1" fill-rule="nonzero"/><path fill="#ffffff" d="M 73.222656 165.996094 L 79.429688 165.996094 L 79.429688 172.203125 L 73.222656 172.203125 Z M 73.222656 176.34375 L 79.429688 176.34375 C 81.710938 176.34375 83.570312 174.484375 83.570312 172.203125 L 83.570312 165.996094 C 83.570312 163.714844 81.710938 161.859375 79.429688 161.859375 L 73.222656 161.859375 C 70.9375 161.859375 69.082031 163.714844 69.082031 165.996094 L 69.082031 172.203125 C 69.082031 174.484375 70.9375 176.34375 73.222656 176.34375 " fill-opacity="1" fill-rule="nonzero"/><path fill="#ffffff" d="M 86.070312 150.851562 L 92.277344 150.851562 L 92.277344 157.058594 L 86.070312 157.058594 Z M 92.277344 161.195312 C 94.558594 161.195312 96.417969 159.339844 96.417969 157.058594 L 96.417969 150.851562 C 96.417969 148.566406 94.558594 146.710938 92.277344 146.710938 L 86.070312 146.710938 C 83.785156 146.710938 81.929688 148.566406 81.929688 150.851562 L 81.929688 157.058594 C 81.929688 159.339844 83.785156 161.195312 86.070312 161.195312 L 92.277344 161.195312 " fill-opacity="1" fill-rule="nonzero"/><path fill="#ffffff" d="M 70.710938 140.875 L 76.921875 140.875 L 76.921875 147.082031 L 70.710938 147.082031 Z M 76.921875 151.222656 C 79.203125 151.222656 81.058594 149.367188 81.058594 147.082031 L 81.058594 140.875 C 81.058594 138.59375 79.203125 136.738281 76.921875 136.738281 L 70.710938 136.738281 C 68.429688 136.738281 66.574219 138.59375 66.574219 140.875 L 66.574219 147.082031 C 66.574219 149.367188 68.429688 151.222656 70.710938 151.222656 L 76.921875 151.222656 " fill-opacity="1" fill-rule="nonzero"/><path fill="#ffffff" d="M 120.199219 141.910156 L 113.988281 141.910156 L 113.988281 135.703125 L 120.199219 135.703125 Z M 106.238281 141.910156 L 100.03125 141.910156 L 100.03125 135.703125 L 106.238281 135.703125 Z M 124.339844 135.703125 C 124.339844 133.421875 122.480469 131.566406 120.199219 131.566406 L 113.988281 131.566406 C 112.214844 131.566406 110.699219 132.691406 110.113281 134.265625 C 109.527344 132.691406 108.015625 131.566406 106.238281 131.566406 L 100.03125 131.566406 C 97.746094 131.566406 95.890625 133.421875 95.890625 135.703125 L 95.890625 141.910156 C 95.890625 144.191406 97.746094 146.050781 100.03125 146.050781 L 106.238281 146.050781 C 108.015625 146.050781 109.527344 144.921875 110.113281 143.347656 C 110.699219 144.921875 112.214844 146.050781 113.988281 146.050781 L 120.199219 146.050781 C 122.480469 146.050781 124.339844 144.191406 124.339844 141.910156 L 124.339844 135.703125 " fill-opacity="1" fill-rule="nonzero"/><path fill="#ffffff" d="M 120.199219 157.058594 L 113.988281 157.058594 L 113.988281 150.851562 L 120.199219 150.851562 Z M 124.339844 150.851562 C 124.339844 148.566406 122.480469 146.710938 120.199219 146.710938 L 113.988281 146.710938 C 111.707031 146.710938 109.851562 148.566406 109.851562 150.851562 L 109.851562 157.058594 C 109.851562 159.339844 111.707031 161.195312 113.988281 161.195312 L 120.199219 161.195312 C 122.480469 161.195312 124.339844 159.339844 124.339844 157.058594 L 124.339844 150.851562 " fill-opacity="1" fill-rule="nonzero"/><path fill="#ffffff" d="M 100.03125 165.996094 L 106.238281 165.996094 L 106.238281 172.203125 L 100.03125 172.203125 Z M 113.988281 165.996094 L 120.199219 165.996094 L 120.199219 172.203125 L 113.988281 172.203125 Z M 100.03125 176.34375 L 106.238281 176.34375 C 108.015625 176.34375 109.527344 175.214844 110.113281 173.640625 C 110.699219 175.214844 112.214844 176.34375 113.988281 176.34375 L 120.199219 176.34375 C 122.480469 176.34375 124.339844 174.484375 124.339844 172.203125 L 124.339844 165.996094 C 124.339844 163.714844 122.480469 161.859375 120.199219 161.859375 L 113.988281 161.859375 C 112.214844 161.859375 110.699219 162.984375 110.113281 164.558594 C 109.527344 162.984375 108.015625 161.859375 106.238281 161.859375 L 100.03125 161.859375 C 97.746094 161.859375 95.890625 163.714844 95.890625 165.996094 L 95.890625 172.203125 C 95.890625 174.484375 97.746094 176.34375 100.03125 176.34375 " fill-opacity="1" fill-rule="nonzero"/><path fill="#ffffff" d="M 84.605469 197.324219 L 78.394531 197.324219 L 78.394531 191.117188 L 84.605469 191.117188 Z M 88.742188 191.117188 C 88.742188 188.835938 86.886719 186.980469 84.605469 186.980469 L 78.394531 186.980469 C 76.113281 186.980469 74.257812 188.835938 74.257812 191.117188 L 74.257812 197.324219 C 74.257812 199.605469 76.113281 201.460938 78.394531 201.460938 L 84.605469 201.460938 C 86.886719 201.460938 88.742188 199.605469 88.742188 197.324219 L 88.742188 191.117188 " fill-opacity="1" fill-rule="nonzero"/><path fill="#ffffff" d="M 98.84375 209.886719 L 92.632812 209.886719 L 92.632812 203.679688 L 98.84375 203.679688 Z M 98.84375 199.542969 L 92.632812 199.542969 C 90.351562 199.542969 88.496094 201.398438 88.496094 203.679688 L 88.496094 209.886719 C 88.496094 212.167969 90.351562 214.023438 92.632812 214.023438 L 98.84375 214.023438 C 101.125 214.023438 102.984375 212.167969 102.984375 209.886719 L 102.984375 203.679688 C 102.984375 201.398438 101.125 199.542969 98.84375 199.542969 " fill-opacity="1" fill-rule="nonzero"/><path fill="#ffffff" d="M 66.574219 209.886719 L 60.363281 209.886719 L 60.363281 203.679688 L 66.574219 203.679688 Z M 66.574219 199.542969 L 60.363281 199.542969 C 58.082031 199.542969 56.226562 201.398438 56.226562 203.679688 L 56.226562 209.886719 C 56.226562 212.167969 58.082031 214.023438 60.363281 214.023438 L 66.574219 214.023438 C 68.855469 214.023438 70.710938 212.167969 70.710938 209.886719 L 70.710938 203.679688 C 70.710938 201.398438 68.855469 199.542969 66.574219 199.542969 " fill-opacity="1" fill-rule="nonzero"/><path fill="#ffffff" d="M 82.09375 222.816406 L 75.886719 222.816406 L 75.886719 216.609375 L 82.09375 216.609375 Z M 82.09375 212.472656 L 75.886719 212.472656 C 73.605469 212.472656 71.746094 214.328125 71.746094 216.609375 L 71.746094 222.816406 C 71.746094 225.097656 73.605469 226.953125 75.886719 226.953125 L 82.09375 226.953125 C 84.378906 226.953125 86.234375 225.097656 86.234375 222.816406 L 86.234375 216.609375 C 86.234375 214.328125 84.378906 212.472656 82.09375 212.472656 " fill-opacity="1" fill-rule="nonzero"/><path fill="#ffffff" d="M 98.84375 232.789062 L 92.632812 232.789062 L 92.632812 226.582031 L 98.84375 226.582031 Z M 98.84375 222.445312 L 92.632812 222.445312 C 90.351562 222.445312 88.496094 224.300781 88.496094 226.582031 L 88.496094 232.789062 C 88.496094 235.074219 90.351562 236.929688 92.632812 236.929688 L 98.84375 236.929688 C 101.125 236.929688 102.984375 235.074219 102.984375 232.789062 L 102.984375 226.582031 C 102.984375 224.300781 101.125 222.445312 98.84375 222.445312 " fill-opacity="1" fill-rule="nonzero"/><path fill="#ffffff" d="M 55.191406 178.695312 L 61.398438 178.695312 L 61.398438 184.902344 L 55.191406 184.902344 Z M 65.539062 184.902344 L 65.539062 178.695312 C 65.539062 176.414062 63.683594 174.558594 61.398438 174.558594 L 55.191406 174.558594 C 52.90625 174.558594 51.050781 176.414062 51.050781 178.695312 L 51.050781 184.902344 C 51.050781 187.183594 52.90625 189.039062 55.191406 189.039062 L 61.398438 189.039062 C 63.683594 189.039062 65.539062 187.183594 65.539062 184.902344 " fill-opacity="1" fill-rule="nonzero"/><path fill="#ffffff" d="M 61.398438 161.714844 L 55.191406 161.714844 L 55.191406 155.507812 L 61.398438 155.507812 Z M 61.398438 151.371094 L 55.191406 151.371094 C 52.90625 151.371094 51.050781 153.226562 51.050781 155.507812 L 51.050781 161.714844 C 51.050781 163.996094 52.90625 165.851562 55.191406 165.851562 L 61.398438 165.851562 C 63.683594 165.851562 65.539062 163.996094 65.539062 161.714844 L 65.539062 155.507812 C 65.539062 153.226562 63.683594 151.371094 61.398438 151.371094 " fill-opacity="1" fill-rule="nonzero"/><path fill="#ffffff" d="M 106.238281 187.351562 L 100.03125 187.351562 L 100.03125 181.144531 L 106.238281 181.144531 Z M 113.988281 181.144531 L 120.199219 181.144531 L 120.199219 187.351562 L 113.988281 187.351562 Z M 113.988281 191.488281 L 120.199219 191.488281 C 122.480469 191.488281 124.339844 189.632812 124.339844 187.351562 L 124.339844 181.144531 C 124.339844 178.863281 122.480469 177.003906 120.199219 177.003906 L 113.988281 177.003906 C 112.214844 177.003906 110.699219 178.132812 110.113281 179.703125 C 109.527344 178.132812 108.015625 177.003906 106.238281 177.003906 L 100.03125 177.003906 C 97.746094 177.003906 95.890625 178.863281 95.890625 181.144531 L 95.890625 187.351562 C 95.890625 189.632812 97.746094 191.488281 100.03125 191.488281 L 106.238281 191.488281 C 108.015625 191.488281 109.527344 190.363281 110.113281 188.789062 C 110.699219 190.363281 112.214844 191.488281 113.988281 191.488281 " fill-opacity="1" fill-rule="nonzero"/><path fill="#ffffff" d="M 120.199219 202.496094 L 113.988281 202.496094 L 113.988281 196.289062 L 120.199219 196.289062 Z M 124.339844 196.289062 C 124.339844 194.007812 122.480469 192.152344 120.199219 192.152344 L 113.988281 192.152344 C 111.707031 192.152344 109.851562 194.007812 109.851562 196.289062 L 109.851562 202.496094 C 109.851562 204.777344 111.707031 206.636719 113.988281 206.636719 L 120.199219 206.636719 C 122.480469 206.636719 124.339844 204.777344 124.339844 202.496094 L 124.339844 196.289062 " fill-opacity="1" fill-rule="nonzero"/><path fill="#ffffff" d="M 120.199219 217.644531 L 113.988281 217.644531 L 113.988281 211.4375 L 120.199219 211.4375 Z M 120.199219 207.296875 L 113.988281 207.296875 C 111.707031 207.296875 109.851562 209.15625 109.851562 211.4375 L 109.851562 217.644531 C 109.851562 219.925781 111.707031 221.78125 113.988281 221.78125 L 120.199219 221.78125 C 122.480469 221.78125 124.339844 219.925781 124.339844 217.644531 L 124.339844 211.4375 C 124.339844 209.15625 122.480469 207.296875 120.199219 207.296875 " fill-opacity="1" fill-rule="nonzero"/><g clip-path="url(#1878f6da6b)"><path fill="#000000" d="M 143.605469 121.039062 L 257.863281 121.039062 L 257.863281 213.03125 L 143.605469 213.03125 Z M 143.605469 121.039062 " fill-opacity="1" fill-rule="nonzero"/></g><g clip-path="url(#6cfc13c78f)"><path fill="#ffffff" d="M 203.761719 185.699219 L 193.523438 165.386719 C 190.511719 168.046875 187.855469 172.714844 188.003906 176.535156 L 191.101562 182.5625 C 191.214844 182.777344 191.402344 182.945312 191.632812 183.03125 L 202.546875 187.035156 C 203.378906 187.339844 204.15625 186.484375 203.761719 185.699219 Z M 185.390625 174.601562 C 185.363281 174.636719 185.339844 174.679688 185.316406 174.722656 L 181.429688 182.492188 C 181.320312 182.714844 181.128906 182.882812 180.894531 182.96875 L 169.78125 187.046875 C 168.953125 187.351562 168.175781 186.507812 168.558594 185.722656 L 185.054688 152.082031 C 185.410156 151.359375 186.449219 151.351562 186.8125 152.070312 L 193.175781 164.695312 C 189.6875 167.152344 186.953125 170.589844 185.390625 174.601562 " fill-opacity="1" fill-rule="nonzero"/></g><g clip-path="url(#101d64efdc)"><path fill="#ffffff" d="M 255.738281 187.351562 L 239.183594 187.351562 C 229.273438 187.351562 221.238281 179.292969 221.238281 169.351562 C 221.238281 164.382812 223.246094 159.882812 226.496094 156.625 C 229.742188 153.367188 234.226562 151.351562 239.183594 151.351562 L 254.410156 151.351562 L 248.972656 156.808594 L 240.648438 156.808594 C 237.195312 156.808594 234.070312 158.210938 231.808594 160.484375 C 229.542969 162.753906 228.144531 165.886719 228.144531 169.351562 C 228.144531 176.28125 233.742188 181.898438 240.648438 181.898438 L 250.300781 181.898438 L 255.738281 187.351562 " fill-opacity="1" fill-rule="nonzero"/></g><g clip-path="url(#9d6b813309)"><path fill="#ffffff" d="M 211.925781 187.175781 L 221.28125 187.175781 L 212.390625 174.316406 C 213.941406 173.75 215.300781 172.972656 216.472656 171.960938 C 217.632812 170.957031 218.542969 169.722656 219.191406 168.257812 C 219.851562 166.792969 220.179688 165.09375 220.1875 163.15625 L 220.1875 163.054688 C 220.1875 161.347656 219.917969 159.804688 219.390625 158.417969 C 218.863281 157.027344 218.082031 155.835938 217.070312 154.824219 C 215.875 153.632812 214.386719 152.730469 212.609375 152.109375 C 210.835938 151.488281 208.777344 151.171875 206.46875 151.171875 L 187.5625 151.171875 L 192.398438 158.320312 L 205.792969 158.320312 C 207.097656 158.320312 208.21875 158.519531 209.152344 158.90625 C 210.089844 159.289062 210.816406 159.855469 211.316406 160.621094 C 211.820312 161.382812 212.070312 162.332031 212.078125 163.464844 L 212.078125 163.566406 C 212.078125 164.589844 211.839844 165.480469 211.351562 166.234375 C 210.875 166.996094 210.183594 167.589844 209.273438 168.015625 C 208.355469 168.4375 207.246094 168.652344 205.945312 168.660156 L 199.394531 168.660156 Z M 211.925781 187.175781 " fill-opacity="1" fill-rule="nonzero"/></g><g clip-path="url(#043f43ae7c)"><path fill="#ff0202" d="M 165.128906 185.015625 C 165.128906 185.363281 165.0625 185.699219 164.925781 186.019531 C 164.792969 186.34375 164.605469 186.625 164.359375 186.871094 C 164.113281 187.117188 163.828125 187.308594 163.507812 187.441406 C 163.183594 187.574219 162.851562 187.640625 162.503906 187.640625 C 162.15625 187.640625 161.820312 187.574219 161.496094 187.441406 C 161.175781 187.308594 160.890625 187.117188 160.644531 186.871094 C 160.398438 186.625 160.210938 186.34375 160.078125 186.019531 C 159.945312 185.699219 159.878906 185.363281 159.878906 185.015625 C 159.878906 184.667969 159.945312 184.332031 160.078125 184.011719 C 160.210938 183.691406 160.398438 183.40625 160.644531 183.160156 C 160.890625 182.914062 161.175781 182.726562 161.496094 182.589844 C 161.820312 182.457031 162.15625 182.390625 162.503906 182.390625 C 162.851562 182.390625 163.183594 182.457031 163.507812 182.589844 C 163.828125 182.726562 164.113281 182.914062 164.359375 183.160156 C 164.605469 183.40625 164.792969 183.691406 164.925781 184.011719 C 165.0625 184.332031 165.128906 184.667969 165.128906 185.015625 Z M 165.128906 185.015625 " fill-opacity="1" fill-rule="nonzero"/></g><g clip-path="url(#3d4d5e3517)"><path fill="#ffffff" d="M 187.144531 229.664062 C 186.886719 229.664062 186.71875 229.578125 186.546875 229.410156 L 183.148438 226.027344 C 182.808594 225.691406 182.808594 225.183594 183.148438 224.84375 L 186.546875 221.464844 C 186.886719 221.128906 187.398438 221.128906 187.738281 221.464844 C 188.078125 221.804688 188.078125 222.308594 187.738281 222.648438 L 184.933594 225.4375 L 187.738281 228.226562 C 188.078125 228.5625 188.078125 229.070312 187.738281 229.410156 C 187.570312 229.578125 187.398438 229.664062 187.144531 229.664062 Z M 187.144531 229.664062 " fill-opacity="1" fill-rule="nonzero"/></g><path fill="#ffffff" d="M 195.644531 229.664062 C 195.390625 229.664062 195.21875 229.578125 195.050781 229.410156 C 194.710938 229.070312 194.710938 228.5625 195.050781 228.226562 L 197.855469 225.4375 L 195.050781 222.648438 C 194.710938 222.308594 194.710938 221.804688 195.050781 221.464844 C 195.390625 221.128906 195.898438 221.128906 196.238281 221.464844 L 199.640625 224.84375 C 199.980469 225.183594 199.980469 225.691406 199.640625 226.027344 L 196.238281 229.410156 C 196.070312 229.578125 195.898438 229.664062 195.644531 229.664062 Z M 195.644531 229.664062 " fill-opacity="1" fill-rule="nonzero"/><g clip-path="url(#081b910978)"><path fill="#ffffff" d="M 189.695312 231.351562 C 189.609375 231.351562 189.523438 231.351562 189.4375 231.269531 C 189.015625 231.097656 188.757812 230.675781 188.929688 230.167969 L 192.328125 220.027344 C 192.5 219.605469 192.925781 219.351562 193.433594 219.523438 C 193.859375 219.691406 194.113281 220.113281 193.945312 220.621094 L 190.542969 230.761719 C 190.375 231.097656 190.035156 231.351562 189.695312 231.351562 Z M 189.695312 231.351562 " fill-opacity="1" fill-rule="nonzero"/></g></svg>